<svg width="421" height="298" viewBox="0 0 421 298" fill="none" xmlns="http://www.w3.org/2000/svg">
<path d="M291.044 250.408C291.044 250.408 287.982 260.082 287.473 262.073C286.963 264.064 287.063 264.642 287.668 266.924C288.272 269.207 291.21 280.643 292.225 283.216C293.043 285.322 294.637 287.032 296.677 287.991C298.081 288.593 303.133 288.244 304.272 287.939C304.962 287.754 305.639 287.524 306.3 287.251C306.3 287.251 306.19 285.126 305 284.386C303.81 283.646 300.377 282.997 300.377 282.997C300.377 282.997 298.1 278.484 297.996 276.245C297.891 274.006 299.424 265.263 300.177 264.093C300.929 262.923 309.7 253.24 312.557 249.558C314.105 247.602 315.516 245.541 316.78 243.389C316.78 243.389 312.276 241.98 308.938 241.956C305.6 241.932 300.843 243.164 299.1 244.277C297.358 245.39 291.044 250.408 291.044 250.408Z" fill="url(#paint0_linear_8_148)"/>
<path style="mix-blend-mode:multiply" d="M291.044 250.408C291.044 250.408 287.982 260.082 287.473 262.073C286.963 264.064 287.063 264.642 287.668 266.924C288.272 269.207 291.21 280.643 292.225 283.216C293.043 285.322 294.637 287.032 296.677 287.991C298.081 288.593 303.133 288.244 304.272 287.939C304.962 287.754 305.639 287.524 306.3 287.251C306.3 287.251 306.19 285.126 305 284.386C303.81 283.646 300.377 282.997 300.377 282.997C300.377 282.997 298.1 278.484 297.996 276.245C297.891 274.006 299.424 265.263 300.177 264.093C300.929 262.923 309.7 253.24 312.557 249.558C314.105 247.602 315.516 245.541 316.78 243.389C316.78 243.389 312.276 241.98 308.938 241.956C305.6 241.932 300.843 243.164 299.1 244.277C297.358 245.39 291.044 250.408 291.044 250.408Z" fill="url(#paint1_linear_8_148)"/>
<path d="M352.151 250.277C352.151 250.277 354.173 249.47 357.914 246.836C360.224 245.209 362.414 243.418 364.466 241.478L368.582 242.477C368.582 242.477 376.31 251.597 377.227 253.595C378.145 255.592 378.188 256.653 377.443 258.57C376.699 260.487 373.553 264.784 372.612 266.39C371.67 267.996 370.618 270.29 369.994 270.151C369.37 270.013 365.979 266.868 366.152 265.051C366.291 263.875 366.631 262.731 367.155 261.667C367.449 260.636 367.804 259.622 368.217 258.632C368.529 257.945 368.902 257.286 369.331 256.663C369.331 256.663 362.237 252.572 359.058 251.534C356.809 250.864 354.493 250.442 352.151 250.277Z" fill="url(#paint2_linear_8_148)"/>
<path style="mix-blend-mode:multiply" d="M352.151 250.277C352.151 250.277 354.173 249.47 357.914 246.836C360.224 245.209 362.414 243.418 364.466 241.478L368.582 242.477C368.582 242.477 376.31 251.597 377.227 253.595C378.145 255.592 378.188 256.653 377.443 258.57C376.699 260.487 373.553 264.784 372.612 266.39C371.67 267.996 370.618 270.29 369.994 270.151C369.37 270.013 365.979 266.868 366.152 265.051C366.291 263.875 366.631 262.731 367.155 261.667C367.449 260.636 367.804 259.622 368.217 258.632C368.529 257.945 368.902 257.286 369.331 256.663C369.331 256.663 362.237 252.572 359.058 251.534C356.809 250.864 354.493 250.442 352.151 250.277Z" fill="url(#paint3_linear_8_148)"/>
<path d="M402.553 271.848C402.553 271.848 406.885 273.054 410.161 272.676C411.753 272.523 413.333 272.266 414.891 271.905C414.891 271.905 419.673 271.364 420.261 270.708C420.849 270.052 420.261 267.682 419.615 266.749C418.97 265.815 418.487 265.183 418.487 265.183C418.487 265.183 412.385 253.104 412.547 251.189C412.71 249.274 414.46 244.424 413.451 242.6C412.442 240.776 409.932 234.652 406.135 230.894C402.338 227.136 396.37 222.214 393.601 220.361C390.832 218.508 384.563 214.195 380.991 212.787C377.418 211.379 367.601 206.85 366.004 205.759C364.407 204.667 359.84 200.631 355.005 200.631C350.17 200.631 338.746 204.322 333.113 205.419C327.48 206.515 317.667 207.305 311.847 207.219C306.027 207.133 295.492 207.899 290.366 209.134C285.24 210.369 279.898 212.888 278.516 212.634C277.134 212.38 268.029 206.86 266.748 205.318C265.466 203.777 257.872 191.874 256.811 188.786C255.749 185.698 252.354 175.577 252.162 174.012C251.971 172.446 250.666 169.703 250.187 171.139C249.709 172.575 251.722 182.041 253.583 189.538C255.443 197.036 257.566 201.79 261.047 207.032C264.529 212.275 271.64 219.322 271.64 219.322C271.64 219.322 267.814 229.501 265.284 235.969C262.755 242.437 262.276 244.276 257.901 250.088C253.525 255.9 246.835 266.15 246.481 267.879C246.127 269.607 245.907 277.052 246.123 281.797C246.338 286.541 247.476 293.995 247.591 294.694C247.706 295.393 249.198 296.744 251.349 297.265C253.501 297.787 257.858 296.681 258.58 296.246L259.302 295.81C259.302 295.81 258.723 292.717 257.069 292.349C255.414 291.98 253.616 291.64 253.616 291.64C253.616 291.64 255.051 280.815 255.84 277.976C256.629 275.137 260.225 268.741 261.994 267.893C263.764 267.046 275.154 261.286 280.95 257.791C285.225 255.266 289.188 252.247 292.757 248.795C295.229 246.401 299.992 242.437 306.357 241.953C312.722 241.47 320.024 243.308 322.817 244.347C325.61 245.386 327.666 246.262 327.666 246.262C327.666 246.262 325.849 248.312 325.901 249.101C325.954 249.891 326.15 255.033 326.504 261.109C326.858 267.185 327.671 278.517 328.077 280.518C328.484 282.519 329.512 284.985 330.86 285.402C332.209 285.818 340.119 284.607 340.635 283.884C341.151 283.161 340.324 281.49 339.162 280.7C338.061 280.03 336.927 279.418 335.762 278.866C335.762 278.866 335.599 266.629 336.47 264.178C337.34 261.727 338.148 260.798 338.335 259.496C338.521 258.193 340.248 254.162 341.175 254.014C342.103 253.865 351.772 250.691 353.685 249.738C355.598 248.785 364.383 241.422 364.383 241.422C366.937 241.759 369.471 242.239 371.972 242.858C374.229 243.426 376.417 244.243 378.494 245.295C378.773 247.006 379.312 248.664 380.092 250.212C381.05 251.972 382.276 253.571 383.726 254.952L402.553 271.848Z" fill="url(#paint4_linear_8_148)"/>
<path style="mix-blend-mode:multiply" d="M326.041 249.126C326.073 248.965 326.112 248.805 326.161 248.648C326.088 248.797 326.047 248.96 326.041 249.126Z" fill="url(#paint5_linear_8_148)"/>
<path style="mix-blend-mode:multiply" opacity="0.3" d="M332.076 241.965C332.076 241.965 327.931 241.645 314.548 237.823C301.164 234.002 297.025 235.592 297.025 235.592C297.025 235.592 295.987 239.099 290.969 245.787C285.233 253.431 277.585 259.164 277.585 259.164L279.272 258.81C279.894 258.452 280.482 258.113 281.022 257.788C285.296 255.269 289.259 252.256 292.828 248.811C295.299 246.423 300.06 242.467 306.422 241.984C312.784 241.502 320.083 243.336 322.874 244.373C325.087 245.209 326.832 245.916 327.458 246.179C328.809 244.581 330.361 243.164 332.076 241.965Z" fill="url(#paint6_linear_8_148)"/>
<path style="mix-blend-mode:multiply" d="M274.189 215.667C274.189 215.667 279.634 214.424 282.843 211.481C280.889 212.165 279.366 212.661 278.71 212.547C277.316 212.298 268.208 206.785 266.924 205.246C265.641 203.708 258.036 191.831 256.973 188.749C255.909 185.667 252.509 175.567 252.318 174.005C252.126 172.443 250.819 169.705 250.34 171.138C250.34 171.138 253.419 189.059 259.645 199.413C263.437 205.687 268.369 211.199 274.189 215.667Z" fill="url(#paint7_linear_8_148)"/>
<path style="mix-blend-mode:multiply" opacity="0.5" d="M378.263 245.608C378.543 247.316 379.084 248.971 379.866 250.515C380.828 252.271 382.059 253.867 383.514 255.245L402.409 272.125C402.409 272.125 406.757 273.329 410.045 272.952C411.634 272.799 413.211 272.543 414.767 272.187C399.645 268.843 387.051 249.889 386.014 247.051C384.738 243.544 379.617 240.678 379.617 240.678L368.098 236.22L364.101 241.753C366.664 242.089 369.207 242.568 371.717 243.186C373.983 243.75 376.178 244.562 378.263 245.608Z" fill="url(#paint8_linear_8_148)"/>
<path style="mix-blend-mode:multiply" d="M393.258 220.019C390.334 218.04 384.458 214.03 381.047 212.681C379.834 212.2 377.899 211.355 375.793 210.409C377.016 215.437 374.398 224.337 374.149 227.838C373.829 232.324 380.517 231.363 384.339 228.799C386.713 227.199 389.579 222.901 393.258 220.019Z" fill="url(#paint9_linear_8_148)"/>
<path style="mix-blend-mode:multiply" d="M370.792 208.311C368.64 207.281 366.881 206.395 366.272 205.979C364.662 204.887 360.094 200.849 355.247 200.849C350.401 200.849 338.95 204.542 333.303 205.639C327.657 206.735 317.821 207.526 311.987 207.439C306.154 207.353 295.594 208.12 290.455 209.355C289.497 209.58 288.538 209.834 287.623 210.141C290.077 214.207 295.292 220.577 304.102 221.434C317.207 222.713 318.803 217.603 325.514 220.477C332.225 223.35 335.422 235.487 345.325 231.655C353.493 228.456 364.503 212.234 370.792 208.311Z" fill="url(#paint10_linear_8_148)"/>
<path d="M420.245 270.897C420.869 270.254 420.245 267.933 419.587 267.019C418.928 266.104 418.436 265.485 418.436 265.485L418.377 265.377C414.593 267.066 414.768 272.069 414.768 272.069C414.768 272.069 419.626 271.539 420.245 270.897Z" fill="#270006"/>
<path d="M409.988 247.214C408.983 247.761 407.91 248.188 406.795 248.486C405.772 248.715 404.763 249 403.774 249.34C403.774 249.34 406.742 251.503 408.353 250.946C409.963 250.389 409.988 247.214 409.988 247.214Z" fill="#270006"/>
<path d="M391.025 237.364C390.704 237.513 387.065 241.726 386.1 245.358C385.135 248.989 383.656 255.35 383.699 258.458C383.742 261.566 385.696 265.567 386.757 266.951C387.818 268.334 395.769 274.469 398.76 274.459C401.751 274.449 402.601 270.952 402.274 269.569C401.948 268.185 400.306 253.832 400.027 249.921C399.749 246.011 400.368 240.996 400.627 240.352C400.887 239.708 401.895 237.868 401.256 237.614C398.096 235.848 394.268 235.755 391.025 237.364Z" fill="url(#paint11_linear_8_148)"/>
<path style="mix-blend-mode:multiply" d="M391.025 237.364C390.704 237.513 387.065 241.726 386.1 245.358C385.135 248.989 383.656 255.35 383.699 258.458C383.742 261.566 385.696 265.567 386.757 266.951C387.818 268.334 395.769 274.469 398.76 274.459C401.751 274.449 402.601 270.952 402.274 269.569C401.948 268.185 400.306 253.832 400.027 249.921C399.749 246.011 400.368 240.996 400.627 240.352C400.887 239.708 401.895 237.868 401.256 237.614C398.096 235.848 394.268 235.755 391.025 237.364Z" fill="url(#paint12_linear_8_148)"/>
<g style="mix-blend-mode:overlay">
<path d="M388.478 217.101C385.846 215.419 382.952 213.7 380.927 212.907C377.364 211.511 367.553 207.018 365.958 205.935C364.363 204.853 359.802 200.849 354.973 200.849C350.144 200.849 338.734 204.511 333.107 205.598C327.481 206.686 317.68 207.469 311.868 207.384C306.055 207.298 295.533 208.058 290.413 209.284C286.998 210.1 283.511 211.487 281.147 212.252C278.578 213.748 276.629 215.101 276.629 215.101C276.629 215.101 287.218 210.433 303.056 209.402C315.154 208.585 331.063 208.106 336.795 206.842C342.526 205.579 352.079 202.407 356.22 203.675C360.36 204.943 362.586 205.256 368.953 208.106C373.762 210.257 383.836 214.916 388.478 217.101Z" fill="white"/>
</g>
<path opacity="0.7" d="M100.251 61.7547C101.043 61.7547 101.685 61.1127 101.685 60.3207C101.685 59.5288 101.043 58.8868 100.251 58.8868C99.4594 58.8868 98.8174 59.5288 98.8174 60.3207C98.8174 61.1127 99.4594 61.7547 100.251 61.7547Z" fill="white"/>
<path d="M47.6646 197.503C47.6646 197.503 84.518 169.256 94.7346 159.632C104.951 150.009 113.86 135.656 119.2 124.014C124.54 112.373 136.622 90.4912 141.032 84.9048C145.441 79.3184 154.04 71.8667 154.04 71.8667L162.868 66.0459C162.868 66.0459 157.991 50.2194 154.755 42.7677C152.733 38.177 150.243 33.8078 147.326 29.7296L136.851 40.2088C136.851 40.2088 126.167 35.0864 124.311 34.1537C122.455 33.221 101.783 36.019 94.1143 36.019C86.4458 36.019 82.2704 36.2486 78.5531 37.6452C74.8358 39.0418 50.6805 52.0799 42.5539 55.5714C34.4274 59.0629 27.9185 63.0231 28.3862 64.1806C28.8538 65.338 36.7465 80.9445 38.8366 80.4758C40.9267 80.0071 59.9713 69.5374 67.6398 64.8789C75.3082 60.2204 79.9465 58.3598 79.9465 58.3598L99.4588 61.8513C99.4588 61.8513 93.8852 78.8496 82.2799 93.05C70.6747 107.25 45.5841 123.78 36.5223 127.037C27.4604 130.294 22.8174 130.529 22.8174 130.529C22.8174 130.529 32.5759 152.41 35.5965 165.683C38.6171 178.955 44.6631 194.547 46.9775 197.341" fill="url(#paint13_linear_8_148)"/>
<path style="mix-blend-mode:multiply" d="M68.7046 106.28C69.6582 105.957 81.4214 112.059 96.3603 111.418C111.299 110.778 130.215 101.945 130.215 101.945L133.233 96.6478L74.4264 100.342L68.7046 106.28Z" fill="url(#paint14_linear_8_148)"/>
<path d="M94.3141 36.0842C86.6495 36.0842 82.4688 36.3129 78.751 37.7045C75.0332 39.096 50.8747 52.0871 42.747 55.566C34.6194 59.0449 28.1097 62.9909 28.5774 64.1441C28.6252 64.2728 75.5868 39.4535 81.5524 38.5003C87.5181 37.5472 117.962 34.9071 123.379 37.0707C128.796 39.2343 135.959 41.8363 135.959 41.8363L137.057 40.2541C137.057 40.2541 126.371 35.1501 124.515 34.2208C122.658 33.2915 101.984 36.0842 94.3141 36.0842Z" fill="url(#paint15_linear_8_148)"/>
<path d="M29.2819 65.5988C29.0925 65.1411 23.2954 72.6322 23.2954 72.6322C23.2954 72.6322 26.7572 78.1047 29.1217 80.2918C30.5288 81.6022 32.1909 82.6137 34.006 83.2642L37.157 79.1983C37.157 79.1983 31.4862 71.0713 29.2819 65.5988Z" fill="url(#paint16_linear_8_148)"/>
<path d="M26.678 77.5283C26.678 77.5283 22.2821 81.6034 20.5475 81.833C18.8129 82.0626 11.6416 80.7856 10.2539 80.9003C8.86619 81.0151 3.89048 85.4442 2.27468 86.836C0.658884 88.2279 0.535325 89.3997 1.23392 89.6293C1.93252 89.8589 3.08258 89.3997 3.08258 89.3997C3.08258 89.3997 3.89049 90.9112 5.27817 91.026C6.66586 91.1407 12.6823 89.0506 16.2656 89.3997C19.8489 89.7489 25.8653 91.026 27.4859 91.7243C29.1064 92.4226 31.763 96.3829 33.2695 97.0812C34.776 97.7796 36.9716 98.1287 35.9308 95.7994C34.89 93.4701 32.4521 89.7537 32.4521 87.8883C32.4521 86.0229 33.2647 82.7657 33.2647 82.7657C33.2647 82.7657 29.2205 81.0199 26.678 77.5283Z" fill="#292F3F"/>
<path d="M109.333 141.579C109.333 141.579 117.998 141.268 122.796 140.623C125.303 140.337 127.786 139.871 130.226 139.229C130.728 137.12 131.507 135.089 132.544 133.186C134.246 130.086 144.772 111.023 148.792 104.976C151.112 101.467 153.645 98.1029 156.375 94.9028C156.375 94.9028 161.482 83.9169 163.652 80.4874C165.822 77.0579 168.125 73.3848 168.125 73.3848L161.449 67.4906C161.449 67.4906 152.011 72.2957 145.048 80.2008C138.085 88.1059 123.073 115.232 119.82 122.669C116.857 129.254 113.349 135.579 109.333 141.579Z" fill="url(#paint17_linear_8_148)"/>
<path d="M158.566 112.036C158.566 112.036 160.74 126.884 162.761 132.918C164.781 138.953 166.022 143.59 168.196 144.982C170.37 146.374 208.755 146.836 208.755 146.836C208.755 146.836 205.336 136.321 205.647 129.977C205.958 123.633 205.8 120.392 205.8 120.392C205.8 120.392 194.925 120.082 187.934 119.615C180.943 119.147 180.162 119.138 179.228 118.533C178.295 117.927 177.366 112.965 176.59 109.872C175.814 106.778 174.1 91.6204 173.482 87.2971C172.865 82.9738 172.185 76.5723 172.185 76.5723C172.185 76.5723 166.486 86.6727 163.69 93.4937C160.893 100.315 158.566 112.036 158.566 112.036Z" fill="url(#paint18_linear_8_148)"/>
<path d="M109.333 141.579C109.333 141.579 117.998 141.268 122.796 140.623C125.303 140.337 127.786 139.871 130.226 139.229C130.728 137.12 131.507 135.089 132.544 133.186C134.246 130.086 144.772 111.023 148.792 104.976C151.112 101.467 153.645 98.1029 156.375 94.9028C156.375 94.9028 161.482 83.9169 163.652 80.4874C165.822 77.0579 168.125 73.3848 168.125 73.3848L161.449 67.4906C161.449 67.4906 152.011 72.2957 145.048 80.2008C138.085 88.1059 123.073 115.232 119.82 122.669C116.857 129.254 113.349 135.579 109.333 141.579Z" fill="url(#paint19_linear_8_148)"/>
<path style="mix-blend-mode:multiply" d="M131.321 99.5157C131.321 99.5157 140.171 97.6334 146.39 94.8098C152.609 91.9863 155.479 89.5533 155.479 89.5533L158.191 89.7133L160.478 86.1321L155.355 86.6027L134.11 95.3698L131.321 99.5157Z" fill="url(#paint20_linear_8_148)"/>
<path d="M168.171 73.1303C168.171 73.1303 157.878 88.0687 155.384 99.4248C152.89 110.781 153.981 123.403 154.293 125.882C154.605 128.362 155.225 135.843 155.225 135.843C155.225 135.843 158.503 110.167 161.621 100.518C164.74 90.8694 170.978 78.4199 172.674 77.643C174.37 76.8661 183.899 77.4848 183.899 77.4848C183.899 77.4848 183.746 74.2189 181.871 71.73C179.997 69.2411 179.377 68.9246 179.377 68.9246C179.377 68.9246 174.856 74.8376 172.828 74.1998C171.295 73.7637 169.741 73.4067 168.171 73.1303Z" fill="url(#paint21_linear_8_148)"/>
<path d="M155.028 134.749C155.028 134.749 154.876 155.53 155.336 160.491C155.797 165.453 158.111 172.125 158.885 176.311C159.659 180.498 157.341 184.068 157.65 183.6C157.959 183.132 145.166 166.542 140.549 159.407C135.932 152.271 132.07 144.829 131.918 143.434C131.766 142.038 132.07 140.953 131.443 140.021C130.816 139.089 130.365 139.089 130.365 139.089C130.365 139.089 130.479 137.889 132.365 133.975C134.915 128.689 139.875 119.565 144.387 112.262C152.249 99.544 156.41 94.7358 156.41 94.7358C156.41 94.7358 153.327 109.934 153.945 118.466C154.562 126.997 155.336 134.138 155.336 134.138L155.028 134.749Z" fill="black"/>
<path d="M60.1006 97.5709C61.0259 97.2596 73.2556 86.6946 75.1111 85.4494C76.9665 84.2042 87.3408 82.8057 100.958 84.9705C114.576 87.1352 127.269 92.116 144.297 85.2817C152.458 82.0011 151.881 80.7751 151.881 80.7751L154.819 76.1104L154.666 71.1392L156.212 70.3585C156.212 70.3585 159.412 75.6267 161.606 77.0922C163.037 78.05 166.214 75.9715 166.214 75.9715L160.547 85.8996L155.439 86.3785C155.439 86.3785 144.759 94.1466 127.736 98.9646C110.713 103.783 98.1634 107.355 87.9561 106.579C77.7488 105.804 74.0283 103.783 68.7673 101.92C65.7014 100.857 62.7877 99.3947 60.1006 97.5709Z" fill="black"/>
<path d="M206.172 120.705L211.814 120.547C211.814 120.547 211.462 128.147 211.776 132.181C212.09 136.216 214.013 142.884 214.013 142.884L208.215 143.969C206.296 136.579 205.556 128.937 206.022 121.322" fill="url(#paint22_linear_8_148)"/>
<path d="M213.821 142.535C214.573 141.474 215.076 140.27 215.295 139.006C215.441 137.637 215.482 136.261 215.416 134.887L212.101 135.24L213.821 142.535Z" fill="black"/>
<path d="M211.412 120.464C210.925 125.469 211.104 130.518 211.946 135.477L215.075 135.13L216.699 132.819C217.062 133.646 217.529 134.423 218.09 135.13C218.811 136.11 219.825 136.838 220.986 137.209L220.872 138.158C220.872 138.158 223.42 139.543 225.159 139.657C226.898 139.771 228.97 138.85 230.146 138.504C231.323 138.158 232.928 134.115 233.957 132.729C234.986 131.344 235.114 129.493 235.929 128.108C236.743 126.722 237.782 125.223 237.32 123.031C236.858 120.838 231.404 119.102 229.784 118.286C228.165 117.47 223.406 112.971 222.363 111.818C221.32 110.665 219.581 109.161 218.076 110.661C216.571 112.16 215.061 118.053 214.48 118.86C213.898 119.666 211.35 120.938 211.35 120.938" fill="#292F3F"/>
<path d="M222.616 118.157L226.34 108.217C226.34 108.217 224.595 102.256 227.965 91.033C231.335 79.8106 236.923 73.8438 241.115 73.2577C245.308 72.6716 247.86 80.3919 244.462 91.033C241.063 101.674 237.483 105.878 235.04 107.848C232.597 109.817 228.873 109.952 228.873 109.952L227.267 117.446L222.616 118.157Z" fill="black"/>
<path d="M217.065 132.975C217.065 132.975 215.73 138.287 215.949 138.98C216.169 139.672 218.818 141.237 219.737 140.365C220.545 139.572 221.057 138.508 221.183 137.362C221.183 137.362 217.619 135.052 217.065 132.975Z" fill="black"/>
<path d="M240.615 93.1218C237.185 101.362 232.229 107.163 229.545 106.077C226.861 104.991 227.477 97.4258 230.912 89.1812C234.346 80.9366 239.297 75.1357 241.976 76.226C244.656 77.3164 244.05 84.8772 240.615 93.1218Z" fill="url(#paint23_linear_8_148)"/>
<path d="M21.3926 265.637C24.0273 261.138 46.3715 232.593 51.6456 226.229C56.9196 219.865 56.7666 217.699 57.3834 211.024C58.0003 204.35 58.182 189.302 58.182 189.302C58.182 189.302 85.1787 167.891 93.4029 160.758C101.627 153.624 109.23 141.517 109.23 141.517C109.23 141.517 112.486 141.364 116.833 141.206C121.179 141.049 130.178 139.189 130.178 139.189L130.795 139.667C131.416 140.145 131.574 141.216 131.574 142.612C131.574 144.008 133.745 148.044 135.141 151.3C136.537 154.556 154.382 178.454 157.175 182.795C159.967 187.137 179.203 210.723 180.91 214.606C182.617 218.488 180.59 221.735 175.928 227.625C171.266 233.516 157.16 255.711 156.376 257.595C155.592 259.479 158.552 260.545 159.173 261.631C159.795 262.716 159.479 268.922 159.479 270.471C159.479 272.021 158.083 273.732 157.466 274.507C156.849 275.281 156.988 276.835 156.988 276.835C156.988 276.835 149.232 282.42 145.512 283.505C141.792 284.591 137.288 288.158 136.356 288.316C135.423 288.473 134.032 285.055 133.874 283.056C133.716 281.057 135.428 279.02 136.513 276.362C137.599 273.704 138.374 266.125 142.251 251.848C146.129 237.571 154.507 218.493 154.507 218.024C154.507 217.556 151.092 215.854 147.215 213.683C143.337 211.512 136.82 206.702 129.045 200.96C121.27 195.217 103.291 180.323 101.426 179.701C99.5616 179.08 96.3101 181.102 94.2923 184.206C92.2745 187.309 87.0004 204.526 84.8248 211.201C82.6492 217.876 79.2399 224.235 73.1913 231.68C67.1426 239.125 46.9692 258.054 44.9514 261.004C42.9336 263.954 41.3843 269.539 41.5373 271.863C41.6904 274.187 39.5195 277.122 38.5919 277.6C37.6643 278.079 33.7817 279.771 29.593 279.15C25.4044 278.528 19.8147 275.583 19.0401 275.43C19.0401 275.43 18.1077 271.547 18.7293 269.998C19.3509 268.449 21.3926 265.637 21.3926 265.637Z" fill="url(#paint24_linear_8_148)"/>
<path d="M88.3018 201.257C95.7687 201.482 103.242 201.162 110.662 200.298C121.613 198.898 125.107 197.728 125.107 197.728C125.107 197.728 109.557 184.449 106.163 182.272C102.77 180.095 101.349 178.536 98.7067 179.783C96.0648 181.03 94.8252 183.826 92.9634 187.25C91.1016 190.674 88.3018 201.257 88.3018 201.257Z" fill="black"/>
<path d="M29.6613 278.835C25.4972 278.219 19.9515 275.271 19.1823 275.118C19.1823 275.118 19.1206 274.86 19.0399 274.459C18.5318 275.438 16.6658 279.012 14.5624 282.714C12.0934 287.052 10.2464 292.326 10.3984 294.032C10.5503 295.737 14.5624 299.287 19.6429 297.285C24.7233 295.284 27.1923 291.858 30.2738 289.068C33.3553 286.278 34.4331 282.557 34.7417 281.63C35.0031 280.601 35.1715 279.551 35.245 278.491C33.4232 278.967 31.5271 279.084 29.6613 278.835Z" fill="black"/>
<path d="M127.034 21.7851C126.321 22.1242 150.627 29.2266 175.775 36.353C200.923 43.4793 218.307 45.3421 218.776 45.4997C219.244 45.6573 209.615 40.3842 205.266 37.5948C200.918 34.8054 195.025 31.7056 195.025 31.7056C195.025 31.7056 194.546 24.1112 194.403 18.8381C194.259 13.565 193.006 7.99096 191.298 6.74911C189.59 5.50725 175.464 1.49512 171.12 0.859859C166.777 0.224604 164.289 0.578052 163.05 2.56502C161.811 4.55198 158.238 13.5506 156.353 16.5168C154.468 19.4829 152.957 22.5493 152.493 22.5493C152.029 22.5493 130.296 20.2328 127.034 21.7851Z" fill="url(#paint25_linear_8_148)"/>
<path d="M155.766 16.8239C155.766 16.8239 170.351 21.1018 178.887 22.0007C187.423 22.8995 194.094 24.1373 194.558 24.7491C195.022 25.3609 194.869 31.1635 194.869 31.1635C194.869 31.1635 182.914 29.7893 172.212 27.648C165.47 26.2754 158.834 24.4419 152.352 22.1607C152.352 22.1607 152.974 20.7959 155.766 16.8239Z" fill="url(#paint26_linear_8_148)"/>
<path d="M127.019 21.6038C127.019 21.6038 133.832 25.8381 139.077 27.939C144.321 30.0398 146.815 30.2075 146.815 30.2075L148.05 28.088L127.019 21.6038Z" fill="url(#paint27_linear_8_148)"/>
<path d="M192.167 40.2453L191.547 43.1892C191.547 43.1892 203.619 45.9802 209.028 45.9802C212.147 46.0011 215.26 45.6903 218.314 45.053C218.314 45.053 197.428 41.7889 192.167 40.2453Z" fill="url(#paint28_linear_8_148)"/>
<path d="M192.382 40.5016C193.164 40.5968 189.906 46.833 189.906 48.3802C189.906 49.9274 189.596 55.0211 190.383 57.3395C191.17 59.6579 192.086 64.1375 189.763 64.5993C187.44 65.061 185.584 63.671 184.191 64.2898C182.798 64.9087 180.475 67.8412 178.771 69.3883C177.068 70.9355 174.745 74.3298 172.889 74.1774C171.034 74.0251 168.248 73.2253 166.688 72.1685C165.128 71.1117 161.579 67.2223 161.579 67.2223L163.129 65.8322C163.129 65.8322 158.793 51.6221 155.854 44.6718C152.915 37.7214 147.572 29.6857 147.572 29.6857L148.111 28.2956C148.111 28.2956 186.032 39.7256 192.382 40.5016Z" fill="url(#paint29_linear_8_148)"/>
<path d="M149.649 32.6683C150.733 32.5106 151.817 30.4987 154.143 30.6516C156.468 30.8045 158.947 32.3577 158.947 35.4592C158.947 38.5608 156.621 46.7949 156.621 46.7949L158.479 51.7554L163.455 52.673C163.455 52.673 164.075 43.8319 165.312 40.2477C166.549 36.6635 167.17 34.0351 167.17 34.0351C167.17 34.0351 154.754 30.47 151.679 29.3804C148.604 28.2908 148.112 28.2956 148.112 28.2956L147.572 29.691L149.649 32.6683Z" fill="#270006"/>
<path d="M182.969 282.462C181.807 279.433 179.026 280.366 174.622 280.132C170.217 279.897 168.365 280.61 164.194 279.175C160.023 277.739 157.008 276.849 157.008 276.849C157.008 276.849 149.285 282.438 145.581 283.524C143.138 284.242 140.367 286.027 138.491 287.213C138.567 287.658 138.934 289.223 140.329 289.424C141.948 289.658 155.161 289.659 159.332 289.659C163.503 289.659 173.931 290.137 178.569 288.96C183.207 287.783 184.126 285.491 182.969 282.462Z" fill="black"/>
<path d="M163.824 1.78009C163.824 1.78009 181.651 4.91968 186.228 7.09324C190.805 9.26681 193.937 23.5157 193.937 23.5157C193.937 23.5157 193.503 7.50381 191.311 6.33008C189.119 5.15635 172.978 0.572343 169.605 0.572343C167.615 0.561756 165.644 0.973282 163.824 1.78009Z" fill="url(#paint30_linear_8_148)"/>
<path d="M147.12 30.2075C147.12 30.2075 152.652 42.6734 155.277 50.522C158.314 59.6037 159.355 65.1006 159.355 65.1006C159.355 65.1006 150.8 70.6787 147.6 74.1824C144.399 77.686 140.402 83.7421 140.402 83.7421C140.402 83.7421 149.236 74.0915 154.615 70.9512C159.994 67.8108 162.868 65.6933 162.868 65.6933C162.868 65.6933 155.997 40.9622 147.12 30.2075Z" fill="url(#paint31_linear_8_148)"/>
<path d="M179.598 120.069L205.887 120.821L205.618 122.937L179.598 120.069Z" fill="url(#paint32_linear_8_148)"/>
<defs>
<linearGradient id="paint0_linear_8_148" x1="2215.75" y1="-3920.77" x2="708.935" y2="4185.1" gradientUnits="userSpaceOnUse">
<stop stop-color="#1DACFF"/>
<stop offset="0.11" stop-color="#20A9FB"/>
<stop offset="0.23" stop-color="#28A0EF"/>
<stop offset="0.34" stop-color="#3690DA"/>
<stop offset="0.46" stop-color="#497BBE"/>
<stop offset="0.57" stop-color="#625F99"/>
<stop offset="0.59" stop-color="#655C95"/>
<stop offset="0.64" stop-color="#6F5F91"/>
<stop offset="0.72" stop-color="#896886"/>
<stop offset="0.83" stop-color="#B37774"/>
<stop offset="0.96" stop-color="#ED8C5C"/>
<stop offset="1" stop-color="#FF9254"/>
</linearGradient>
<linearGradient id="paint1_linear_8_148" x1="2215.75" y1="-3920.77" x2="708.935" y2="4185.1" gradientUnits="userSpaceOnUse">
<stop stop-color="#1DACFF"/>
<stop offset="0.11" stop-color="#20A9FB"/>
<stop offset="0.23" stop-color="#28A0EF"/>
<stop offset="0.34" stop-color="#3690DA"/>
<stop offset="0.46" stop-color="#497BBE"/>
<stop offset="0.57" stop-color="#625F99"/>
<stop offset="0.59" stop-color="#655C95"/>
<stop offset="0.64" stop-color="#6F5F91"/>
<stop offset="0.72" stop-color="#896886"/>
<stop offset="0.83" stop-color="#B37774"/>
<stop offset="0.96" stop-color="#ED8C5C"/>
<stop offset="1" stop-color="#FF9254"/>
</linearGradient>
<linearGradient id="paint2_linear_8_148" x1="2741.75" y1="-2536.47" x2="-46.0026" y2="5193.42" gradientUnits="userSpaceOnUse">
<stop stop-color="#1DACFF"/>
<stop offset="0.11" stop-color="#20A9FB"/>
<stop offset="0.23" stop-color="#28A0EF"/>
<stop offset="0.34" stop-color="#3690DA"/>
<stop offset="0.46" stop-color="#497BBE"/>
<stop offset="0.57" stop-color="#625F99"/>
<stop offset="0.59" stop-color="#655C95"/>
<stop offset="0.64" stop-color="#6F5F91"/>
<stop offset="0.72" stop-color="#896886"/>
<stop offset="0.83" stop-color="#B37774"/>
<stop offset="0.96" stop-color="#ED8C5C"/>
<stop offset="1" stop-color="#FF9254"/>
</linearGradient>
<linearGradient id="paint3_linear_8_148" x1="2741.75" y1="-2536.47" x2="-46.0026" y2="5193.42" gradientUnits="userSpaceOnUse">
<stop stop-color="#1DACFF"/>
<stop offset="0.11" stop-color="#20A9FB"/>
<stop offset="0.23" stop-color="#28A0EF"/>
<stop offset="0.34" stop-color="#3690DA"/>
<stop offset="0.46" stop-color="#497BBE"/>
<stop offset="0.57" stop-color="#625F99"/>
<stop offset="0.59" stop-color="#655C95"/>
<stop offset="0.64" stop-color="#6F5F91"/>
<stop offset="0.72" stop-color="#896886"/>
<stop offset="0.83" stop-color="#B37774"/>
<stop offset="0.96" stop-color="#ED8C5C"/>
<stop offset="1" stop-color="#FF9254"/>
</linearGradient>
<linearGradient id="paint4_linear_8_148" x1="11603.8" y1="1630.08" x2="9200.94" y2="9459" gradientUnits="userSpaceOnUse">
<stop stop-color="#1DACFF"/>
<stop offset="0.11" stop-color="#20A9FB"/>
<stop offset="0.23" stop-color="#28A0EF"/>
<stop offset="0.34" stop-color="#3690DA"/>
<stop offset="0.46" stop-color="#497BBE"/>
<stop offset="0.57" stop-color="#625F99"/>
<stop offset="0.59" stop-color="#655C95"/>
<stop offset="0.64" stop-color="#6F5F91"/>
<stop offset="0.72" stop-color="#896886"/>
<stop offset="0.83" stop-color="#B37774"/>
<stop offset="0.96" stop-color="#ED8C5C"/>
<stop offset="1" stop-color="#FF9254"/>
</linearGradient>
<linearGradient id="paint5_linear_8_148" x1="333.629" y1="248.648" x2="303.167" y2="273.141" gradientUnits="userSpaceOnUse">
<stop stop-color="#1DACFF"/>
<stop offset="0.07" stop-color="#20A9FB"/>
<stop offset="0.14" stop-color="#28A0EF"/>
<stop offset="0.21" stop-color="#3690DA"/>
<stop offset="0.28" stop-color="#497BBE"/>
<stop offset="0.35" stop-color="#655C95"/>
<stop offset="0.43" stop-color="#6F5F91"/>
<stop offset="0.57" stop-color="#896886"/>
<stop offset="0.74" stop-color="#B37774"/>
<stop offset="0.94" stop-color="#ED8C5C"/>
<stop offset="1" stop-color="#FF9254"/>
</linearGradient>
<linearGradient id="paint6_linear_8_148" x1="3444.25" y1="1220.28" x2="3149.55" y2="2171.16" gradientUnits="userSpaceOnUse">
<stop stop-color="#1DACFF"/>
<stop offset="0.11" stop-color="#20A9FB"/>
<stop offset="0.23" stop-color="#28A0EF"/>
<stop offset="0.34" stop-color="#3690DA"/>
<stop offset="0.46" stop-color="#497BBE"/>
<stop offset="0.57" stop-color="#625F99"/>
<stop offset="0.59" stop-color="#655C95"/>
<stop offset="0.64" stop-color="#6F5F91"/>
<stop offset="0.72" stop-color="#896886"/>
<stop offset="0.83" stop-color="#B37774"/>
<stop offset="0.96" stop-color="#ED8C5C"/>
<stop offset="1" stop-color="#FF9254"/>
</linearGradient>
<linearGradient id="paint7_linear_8_148" x1="2453.54" y1="-635.643" x2="858.304" y2="3502.2" gradientUnits="userSpaceOnUse">
<stop stop-color="#1DACFF"/>
<stop offset="0.07" stop-color="#20A9FB"/>
<stop offset="0.14" stop-color="#28A0EF"/>
<stop offset="0.21" stop-color="#3690DA"/>
<stop offset="0.28" stop-color="#497BBE"/>
<stop offset="0.35" stop-color="#655C95"/>
<stop offset="0.43" stop-color="#6F5F91"/>
<stop offset="0.57" stop-color="#896886"/>
<stop offset="0.74" stop-color="#B37774"/>
<stop offset="0.94" stop-color="#ED8C5C"/>
<stop offset="1" stop-color="#FF9254"/>
</linearGradient>
<linearGradient id="paint8_linear_8_148" x1="3712.6" y1="1086.5" x2="3076.86" y2="2732.47" gradientUnits="userSpaceOnUse">
<stop stop-color="#1DACFF"/>
<stop offset="0.07" stop-color="#20A9FB"/>
<stop offset="0.14" stop-color="#28A0EF"/>
<stop offset="0.21" stop-color="#3690DA"/>
<stop offset="0.28" stop-color="#497BBE"/>
<stop offset="0.35" stop-color="#655C95"/>
<stop offset="0.43" stop-color="#6F5F91"/>
<stop offset="0.57" stop-color="#896886"/>
<stop offset="0.74" stop-color="#B37774"/>
<stop offset="0.94" stop-color="#ED8C5C"/>
<stop offset="1" stop-color="#FF9254"/>
</linearGradient>
<linearGradient id="paint9_linear_8_148" x1="765.504" y1="2757.32" x2="2177.01" y2="-1216.13" gradientUnits="userSpaceOnUse">
<stop stop-color="#1DACFF"/>
<stop offset="0.07" stop-color="#20A9FB"/>
<stop offset="0.14" stop-color="#28A0EF"/>
<stop offset="0.21" stop-color="#3690DA"/>
<stop offset="0.28" stop-color="#497BBE"/>
<stop offset="0.35" stop-color="#655C95"/>
<stop offset="0.43" stop-color="#6F5F91"/>
<stop offset="0.57" stop-color="#896886"/>
<stop offset="0.74" stop-color="#B37774"/>
<stop offset="0.94" stop-color="#ED8C5C"/>
<stop offset="1" stop-color="#FF9254"/>
</linearGradient>
<linearGradient id="paint10_linear_8_148" x1="2227.02" y1="2141.82" x2="4091.11" y2="-605.901" gradientUnits="userSpaceOnUse">
<stop stop-color="#1DACFF"/>
<stop offset="0.07" stop-color="#20A9FB"/>
<stop offset="0.14" stop-color="#28A0EF"/>
<stop offset="0.21" stop-color="#3690DA"/>
<stop offset="0.28" stop-color="#497BBE"/>
<stop offset="0.35" stop-color="#655C95"/>
<stop offset="0.43" stop-color="#6F5F91"/>
<stop offset="0.57" stop-color="#896886"/>
<stop offset="0.74" stop-color="#B37774"/>
<stop offset="0.94" stop-color="#ED8C5C"/>
<stop offset="1" stop-color="#FF9254"/>
</linearGradient>
<linearGradient id="paint11_linear_8_148" x1="1685.54" y1="-1305.26" x2="61.8562" y2="2918.8" gradientUnits="userSpaceOnUse">
<stop stop-color="#1DACFF"/>
<stop offset="0.11" stop-color="#20A9FB"/>
<stop offset="0.23" stop-color="#28A0EF"/>
<stop offset="0.34" stop-color="#3690DA"/>
<stop offset="0.46" stop-color="#497BBE"/>
<stop offset="0.57" stop-color="#625F99"/>
<stop offset="0.59" stop-color="#655C95"/>
<stop offset="0.64" stop-color="#6F5F97"/>
<stop offset="0.72" stop-color="#89689D"/>
<stop offset="0.83" stop-color="#B377A6"/>
<stop offset="0.96" stop-color="#ED8CB2"/>
<stop offset="1" stop-color="#FF92B6"/>
</linearGradient>
<linearGradient id="paint12_linear_8_148" x1="1685.54" y1="-1305.26" x2="61.8562" y2="2918.8" gradientUnits="userSpaceOnUse">
<stop stop-color="#1DACFF"/>
<stop offset="0.11" stop-color="#20A9FB"/>
<stop offset="0.23" stop-color="#28A0EF"/>
<stop offset="0.34" stop-color="#3690DA"/>
<stop offset="0.46" stop-color="#497BBE"/>
<stop offset="0.57" stop-color="#625F99"/>
<stop offset="0.59" stop-color="#655C95"/>
<stop offset="0.64" stop-color="#6F5F97"/>
<stop offset="0.72" stop-color="#89689D"/>
<stop offset="0.83" stop-color="#B377A6"/>
<stop offset="0.96" stop-color="#ED8CB2"/>
<stop offset="1" stop-color="#FF92B6"/>
</linearGradient>
<linearGradient id="paint13_linear_8_148" x1="21.863" y1="8418.41" x2="14027.8" y2="8418.41" gradientUnits="userSpaceOnUse">
<stop stop-color="#7633FF"/>
<stop offset="0.16" stop-color="#7137FF"/>
<stop offset="0.35" stop-color="#6243FF"/>
<stop offset="0.57" stop-color="#4957FF"/>
<stop offset="0.79" stop-color="#2672FF"/>
<stop offset="1" stop-color="#0090FF"/>
</linearGradient>
<linearGradient id="paint14_linear_8_148" x1="2860.97" y1="901.207" x2="3044.61" y2="280.728" gradientUnits="userSpaceOnUse">
<stop stop-color="#7633FF"/>
<stop offset="0.13" stop-color="#7231FA"/>
<stop offset="0.29" stop-color="#682DEB"/>
<stop offset="0.46" stop-color="#5625D2"/>
<stop offset="0.65" stop-color="#3E1BAF"/>
<stop offset="0.84" stop-color="#1F0D83"/>
<stop offset="1" stop-color="#000057"/>
</linearGradient>
<linearGradient id="paint15_linear_8_148" x1="4605.39" y1="1781.2" x2="4856.37" y2="942.705" gradientUnits="userSpaceOnUse">
<stop stop-color="white"/>
<stop offset="0.12" stop-color="#FBFDFF"/>
<stop offset="0.25" stop-color="#EFF5FF"/>
<stop offset="0.37" stop-color="#DAE9FF"/>
<stop offset="0.5" stop-color="#BDD9FF"/>
<stop offset="0.63" stop-color="#98C3FF"/>
<stop offset="0.76" stop-color="#6BA9FF"/>
<stop offset="0.88" stop-color="#378AFF"/>
<stop offset="1" stop-color="#006AFF"/>
</linearGradient>
<linearGradient id="paint16_linear_8_148" x1="23.2954" y1="949.659" x2="1409.46" y2="949.659" gradientUnits="userSpaceOnUse">
<stop stop-color="#1DACFF"/>
<stop offset="0.24" stop-color="#1BA8FF"/>
<stop offset="0.49" stop-color="#169CFF"/>
<stop offset="0.74" stop-color="#0D87FF"/>
<stop offset="0.99" stop-color="#006BFF"/>
<stop offset="1" stop-color="#006AFF"/>
</linearGradient>
<linearGradient id="paint17_linear_8_148" x1="109.333" y1="3772.13" x2="5990.01" y2="3772.13" gradientUnits="userSpaceOnUse">
<stop stop-color="#1DACFF"/>
<stop offset="0.24" stop-color="#1BA8FF"/>
<stop offset="0.49" stop-color="#169CFF"/>
<stop offset="0.74" stop-color="#0D87FF"/>
<stop offset="0.99" stop-color="#006BFF"/>
<stop offset="1" stop-color="#006AFF"/>
</linearGradient>
<linearGradient id="paint18_linear_8_148" x1="3707.43" y1="8663.57" x2="-35.9288" y2="2227.72" gradientUnits="userSpaceOnUse">
<stop stop-color="#7633FF"/>
<stop offset="0.13" stop-color="#7231FA"/>
<stop offset="0.29" stop-color="#682DEB"/>
<stop offset="0.46" stop-color="#5625D2"/>
<stop offset="0.65" stop-color="#3E1BAF"/>
<stop offset="0.84" stop-color="#1F0D83"/>
<stop offset="1" stop-color="#000057"/>
</linearGradient>
<linearGradient id="paint19_linear_8_148" x1="109.333" y1="3772.13" x2="5990.01" y2="3772.13" gradientUnits="userSpaceOnUse">
<stop stop-color="#1DACFF"/>
<stop offset="0.14" stop-color="#1CA9FB"/>
<stop offset="0.27" stop-color="#1B9FEF"/>
<stop offset="0.41" stop-color="#188EDA"/>
<stop offset="0.55" stop-color="#1476BD"/>
<stop offset="0.7" stop-color="#0F5898"/>
<stop offset="0.84" stop-color="#08326B"/>
<stop offset="0.98" stop-color="#010737"/>
<stop offset="1" stop-color="#00002E"/>
</linearGradient>
<linearGradient id="paint20_linear_8_148" x1="1255.51" y1="986.834" x2="1560.06" y2="-15.5788" gradientUnits="userSpaceOnUse">
<stop stop-color="#7633FF"/>
<stop offset="0.13" stop-color="#7231FA"/>
<stop offset="0.29" stop-color="#682DEB"/>
<stop offset="0.46" stop-color="#5625D2"/>
<stop offset="0.65" stop-color="#3E1BAF"/>
<stop offset="0.84" stop-color="#1F0D83"/>
<stop offset="1" stop-color="#000057"/>
</linearGradient>
<linearGradient id="paint21_linear_8_148" x1="2313.98" y1="1455.34" x2="-1823.4" y2="3730.55" gradientUnits="userSpaceOnUse">
<stop stop-color="#7633FF"/>
<stop offset="0.13" stop-color="#7231FA"/>
<stop offset="0.29" stop-color="#682DEB"/>
<stop offset="0.46" stop-color="#5625D2"/>
<stop offset="0.65" stop-color="#3E1BAF"/>
<stop offset="0.84" stop-color="#1F0D83"/>
<stop offset="1" stop-color="#000057"/>
</linearGradient>
<linearGradient id="paint22_linear_8_148" x1="205.393" y1="1291.62" x2="1018.47" y2="1291.62" gradientUnits="userSpaceOnUse">
<stop stop-color="#1DACFF"/>
<stop offset="0.24" stop-color="#1BA8FF"/>
<stop offset="0.49" stop-color="#169CFF"/>
<stop offset="0.74" stop-color="#0D87FF"/>
<stop offset="0.99" stop-color="#006BFF"/>
<stop offset="1" stop-color="#006AFF"/>
</linearGradient>
<linearGradient id="paint23_linear_8_148" x1="1209.3" y1="25.1801" x2="-178.751" y2="3101.62" gradientUnits="userSpaceOnUse">
<stop stop-color="white"/>
<stop offset="0.12" stop-color="#FBFDFF"/>
<stop offset="0.25" stop-color="#EFF5FF"/>
<stop offset="0.37" stop-color="#DAE9FF"/>
<stop offset="0.5" stop-color="#BDD9FF"/>
<stop offset="0.63" stop-color="#98C3FF"/>
<stop offset="0.76" stop-color="#6BA9FF"/>
<stop offset="0.88" stop-color="#378AFF"/>
<stop offset="1" stop-color="#006AFF"/>
</linearGradient>
<linearGradient id="paint24_linear_8_148" x1="6818.22" y1="14887.5" x2="9973.34" y2="1701.21" gradientUnits="userSpaceOnUse">
<stop stop-color="#311842"/>
<stop offset="0.46" stop-color="#190C4B"/>
<stop offset="1" stop-color="#000054"/>
</linearGradient>
<linearGradient id="paint25_linear_8_148" x1="7080.22" y1="1798.99" x2="5583.46" y2="3654.19" gradientUnits="userSpaceOnUse">
<stop stop-color="#1DACFF"/>
<stop offset="0.14" stop-color="#1CAAFB"/>
<stop offset="0.28" stop-color="#1BA3EF"/>
<stop offset="0.42" stop-color="#1898DA"/>
<stop offset="0.56" stop-color="#1488BD"/>
<stop offset="0.7" stop-color="#0F7499"/>
<stop offset="0.84" stop-color="#085B6B"/>
<stop offset="0.99" stop-color="#013E37"/>
<stop offset="1" stop-color="#003B31"/>
</linearGradient>
<linearGradient id="paint26_linear_8_148" x1="152.352" y1="734.982" x2="4406.41" y2="734.982" gradientUnits="userSpaceOnUse">
<stop stop-color="#1DACFF"/>
<stop offset="0.24" stop-color="#1BA8FF"/>
<stop offset="0.49" stop-color="#169CFF"/>
<stop offset="0.74" stop-color="#0D87FF"/>
<stop offset="0.99" stop-color="#006BFF"/>
<stop offset="1" stop-color="#006AFF"/>
</linearGradient>
<linearGradient id="paint27_linear_8_148" x1="127.019" y1="452.491" x2="2231.12" y2="452.491" gradientUnits="userSpaceOnUse">
<stop stop-color="#270006"/>
<stop offset="1"/>
</linearGradient>
<linearGradient id="paint28_linear_8_148" x1="191.547" y1="326.51" x2="2869.23" y2="326.51" gradientUnits="userSpaceOnUse">
<stop stop-color="#270006"/>
<stop offset="1"/>
</linearGradient>
<linearGradient id="paint29_linear_8_148" x1="1718.46" y1="4709.79" x2="3575.4" y2="-3699.7" gradientUnits="userSpaceOnUse">
<stop stop-color="white"/>
<stop offset="0.12" stop-color="#FBFDFF"/>
<stop offset="0.25" stop-color="#EFF5FF"/>
<stop offset="0.37" stop-color="#DAE9FF"/>
<stop offset="0.5" stop-color="#BDD9FF"/>
<stop offset="0.63" stop-color="#98C3FF"/>
<stop offset="0.76" stop-color="#6BA9FF"/>
<stop offset="0.88" stop-color="#378AFF"/>
<stop offset="1" stop-color="#006AFF"/>
</linearGradient>
<linearGradient id="paint30_linear_8_148" x1="1474.83" y1="1561.62" x2="1977.49" y2="-123.825" gradientUnits="userSpaceOnUse">
<stop stop-color="white"/>
<stop offset="0.12" stop-color="#FBFDFF"/>
<stop offset="0.25" stop-color="#EFF5FF"/>
<stop offset="0.37" stop-color="#DAE9FF"/>
<stop offset="0.5" stop-color="#BDD9FF"/>
<stop offset="0.63" stop-color="#98C3FF"/>
<stop offset="0.76" stop-color="#6BA9FF"/>
<stop offset="0.88" stop-color="#378AFF"/>
<stop offset="1" stop-color="#006AFF"/>
</linearGradient>
<linearGradient id="paint31_linear_8_148" x1="140.402" y1="2706.94" x2="2386.94" y2="2706.94" gradientUnits="userSpaceOnUse">
<stop stop-color="white"/>
<stop offset="0.12" stop-color="#FBFDFF"/>
<stop offset="0.25" stop-color="#EFF5FF"/>
<stop offset="0.37" stop-color="#DAE9FF"/>
<stop offset="0.5" stop-color="#BDD9FF"/>
<stop offset="0.63" stop-color="#98C3FF"/>
<stop offset="0.76" stop-color="#6BA9FF"/>
<stop offset="0.88" stop-color="#378AFF"/>
<stop offset="1" stop-color="#006AFF"/>
</linearGradient>
<linearGradient id="paint32_linear_8_148" x1="2042.98" y1="272.834" x2="1804.44" y2="-115.281" gradientUnits="userSpaceOnUse">
<stop stop-color="white"/>
<stop offset="0.12" stop-color="#FBFDFF"/>
<stop offset="0.25" stop-color="#EFF5FF"/>
<stop offset="0.37" stop-color="#DAE9FF"/>
<stop offset="0.5" stop-color="#BDD9FF"/>
<stop offset="0.63" stop-color="#98C3FF"/>
<stop offset="0.76" stop-color="#6BA9FF"/>
<stop offset="0.88" stop-color="#378AFF"/>
<stop offset="1" stop-color="#006AFF"/>
</linearGradient>
</defs>
</svg>
